<svg id="Layer_1" data-name="Layer 1" xmlns="http://www.w3.org/2000/svg" viewBox="0 0 64 64"><title>Icons design for application_16_[(n)]_64</title><polygon points="41.97 50.72 40.09 50.72 40.09 52.6 43.86 52.6 43.86 48.83 41.97 48.83 41.97 50.72"/><rect x="29.87" y="50.71" width="5.11" height="1.89"/><polygon points="22.88 48.83 21 48.83 21 52.6 24.77 52.6 24.77 50.72 22.88 50.72 22.88 48.83"/><rect x="21" y="35.51" width="1.89" height="6.66"/><rect x="21" y="22.19" width="1.89" height="6.66"/><polygon points="21 15.53 22.88 15.53 22.88 13.65 24.77 13.65 24.77 11.76 21 11.76 21 15.53"/><rect x="29.87" y="11.76" width="5.11" height="1.89"/><polygon points="40.09 11.76 40.09 13.65 41.97 13.65 41.97 15.53 43.86 15.53 43.86 11.76 40.09 11.76"/><rect x="41.97" y="22.19" width="1.89" height="6.66"/><rect x="41.97" y="35.51" width="1.89" height="6.66"/><path d="M24.33,58.05v1.07A27.4,27.4,0,0,1,17,54a29,29,0,0,1-6.43-9.91A31.88,31.88,0,0,1,8.34,32.21a31.3,31.3,0,0,1,4.43-16.38A25.51,25.51,0,0,1,24.33,5.24V6.45a16.61,16.61,0,0,0-5.85,5.39,24.79,24.79,0,0,0-3.42,8.67,52,52,0,0,0-1.13,11,60.81,60.81,0,0,0,1,11.27,30,30,0,0,0,1.82,6.41,20.78,20.78,0,0,0,2.88,4.65A22.66,22.66,0,0,0,24.33,58.05Z"/><path d="M40.08,6.45V5.24a27,27,0,0,1,7.33,5.13,29.54,29.54,0,0,1,6.41,9.92,32,32,0,0,1,2.26,11.86,31.45,31.45,0,0,1-4.42,16.39A25.39,25.39,0,0,1,40.08,59.12V58.05A17,17,0,0,0,46,52.65,24.28,24.28,0,0,0,49.37,44a53,53,0,0,0,1.12-11,61.12,61.12,0,0,0-1-11.27,28.16,28.16,0,0,0-1.81-6.4,22.22,22.22,0,0,0-2.88-4.64A22.6,22.6,0,0,0,40.08,6.45Z"/><path d="M14.88,62.3H0V1.67H14.88V4.34H5.07V59.66h9.81Z"/><path d="M49.12,1.67H64V62.33H49.12V59.66h9.81V4.34H49.12Z"/></svg>